<svg width="1024" height="1024" viewBox="0 0 1024 1024" xmlns="http://www.w3.org/2000/svg">
  <defs>
    <linearGradient id="bgGradient" x1="0%" y1="0%" x2="100%" y2="100%">
      <stop offset="0%" style="stop-color:#1a0033;stop-opacity:1" />
      <stop offset="100%" style="stop-color:#00001a;stop-opacity:1" />
    </linearGradient>
    <radialGradient id="eyeGradient" cx="50%" cy="50%" r="50%" fx="50%" fy="50%">
      <stop offset="0%" style="stop-color:#ff00ff;stop-opacity:1" />
      <stop offset="100%" style="stop-color:#00ffff;stop-opacity:0" />
    </radialGradient>
  </defs>
  <rect width="100%" height="100%" fill="url(#bgGradient)" />
  <g transform="translate(512, 512)">
    <circle cx="0" cy="150" r="200" fill="#111" />
    <ellipse cx="0" cy="100" rx="180" ry="220" fill="#222" />
    <path d="M-100,100 Q0,150 100,100 L100,250 Q0,280 -100,250 Z" fill="#333" />
    <circle cx="-60" cy="50" r="40" fill="#00ffff" />
    <circle cx="60" cy="50" r="40" fill="#ff00ff" />
    <circle cx="-60" cy="50" r="20" fill="url(#eyeGradient)" />
    <circle cx="60" cy="50" r="20" fill="url(#eyeGradient)" />
    <path d="M-120,180 Q-100,200 -80,180" stroke="#00ffff" stroke-width="8" fill="none" />
    <path d="M120,180 Q100,200 80,180" stroke="#ff00ff" stroke-width="8" fill="none" />
    <path d="M-150,250 C-160,280 -140,320 -100,320" stroke="#00ffff" stroke-width="10" fill="none" />
    <path d="M150,250 C160,280 140,320 100,320" stroke="#ff00ff" stroke-width="10" fill="none" />
    <rect x="-120" y="280" width="240" height="40" rx="10" fill="#444" />
    <circle cx="0" cy="300" r="15" fill="#00ffff" />
    <circle cx="0" cy="300" r="8" fill="#ff00ff" />
  </g>
</svg>