<svg width="1024" height="1024" viewBox="0 0 1024 1024" xmlns="http://www.w3.org/2000/svg">
  <defs>
    <radialGradient id="bgGrad" cx="50%" cy="50%" r="70%">
      <stop offset="0%" stop-color="#083344" />
      <stop offset="100%" stop-color="#021520" />
    </radialGradient>
    <linearGradient id="primaryGrad" x1="0%" y1="0%" x2="100%" y2="100%">
      <stop offset="0%" stop-color="#06B6D4" />
      <stop offset="100%" stop-color="#3B82F6" />
    </linearGradient>
    <linearGradient id="secondaryGrad" x1="0%" y1="100%" x2="100%" y2="0%">
      <stop offset="0%" stop-color="#3B82F6" stop-opacity="0.8" />
      <stop offset="100%" stop-color="#10B981" stop-opacity="0.9" />
    </linearGradient>
    <filter id="glow" x="-20%" y="-20%" width="140%" height="140%">
      <feGaussianBlur stdDeviation="15" result="blur" />
      <feComposite in="SourceGraphic" in2="blur" operator="over" />
    </filter>
  </defs>

  <rect width="1024" height="1024" fill="url(#bgGrad)" />
  
        <g opacity="0.08">
            <path d="M 0,100 L 1024,100 M 0,200 L 1024,200 M 0,300 L 1024,300 M 0,400 L 1024,400 M 0,500 L 1024,500 M 0,600 L 1024,600 M 0,700 L 1024,700 M 0,800 L 1024,800 M 0,900 L 1024,900" stroke="#FFFFFF" stroke-width="2"/>
            <path d="M 100,0 L 100,1024 M 200,0 L 200,1024 M 300,0 L 300,1024 M 400,0 L 400,1024 M 500,0 L 500,1024 M 600,0 L 600,1024 M 700,0 L 700,1024 M 800,0 L 800,1024 M 900,0 L 900,1024" stroke="#FFFFFF" stroke-width="2"/>
        </g>
        
  
        <path d="M280,820 C280,680 370,640 512,640 C654,640 744,680 744,820 Z" fill="url(#primaryGrad)" />
        <circle cx="512" cy="450" r="130" fill="url(#secondaryGrad)" />
        <g transform="translate(512, 450) rotate(-45)">
            <circle cx="-30" cy="0" r="25" stroke="#10B981" stroke-width="8" fill="none" />
            <rect x="-5" y="-4" width="70" height="8" fill="#10B981" />
            <rect x="45" y="4" width="8" height="15" fill="#10B981" />
            <rect x="57" y="4" width="8" height="15" fill="#10B981" />
        </g>
        
  
  
  <rect x="20" y="20" width="984" height="984" rx="20" stroke="#06B6D4" stroke-width="4" stroke-opacity="0.2" fill="none" />
</svg>